# xmcd
#
# Track frame offsets: 
#        150
#        28301
#        64181
#        81994
#        117829
#        138147
#        180167
#        204696
#
# Disc length: 3079 seconds
#
# Revision: 0
# Processed by: cddbd v1.5.2PL0 Copyright (c) Steve Scherf et al.
# Submitted via: ExactAudioCopy v1.3
#
DISCID=6a0c0508
DTITLE=Ralph De Jongh - Breath Of Live [disc 1]
DYEAR=2017
DGENRE=Blues Rock, Folk
TTITLE0=A Better, Not A Bitter Man
TTITLE1=Spinning 'Round
TTITLE2=Throw Out The Bottles
TTITLE3=Kneel To Your True Self
TTITLE4=Already There
TTITLE5=Yogi Bear
TTITLE6=Stars In The Sun
TTITLE7=Goodnight Girl
EXTD=
EXTT0=
EXTT1=
EXTT2=
EXTT3=
EXTT4=
EXTT5=
EXTT6=
EXTT7=
PLAYORDER=
